<!DOCTYPE svg PUBLIC "-//W3C//DTD SVG 1.1//EN" "http://www.w3.org/Graphics/SVG/1.1/DTD/svg11.dtd">
<!-- Uploaded to: SVG Repo, www.svgrepo.com, Transformed by: SVG Repo Mixer Tools -->
<svg fill="#000000" width="800px" height="800px" viewBox="-3.84 -3.84 31.68 31.68" id="disney-plus" data-name="Flat Color" xmlns="http://www.w3.org/2000/svg" class="icon flat-color" stroke="#000000" stroke-width="0.792">
<g id="SVGRepo_bgCarrier" stroke-width="0">
<path transform="translate(-3.84, -3.84), scale(0.99)" d="M16,30.565896919618048C18.17311985907685,30.689068533484214,19.38307398379949,27.957625002078725,21.139236422666176,26.67173439371019C22.59793208280524,25.603653783210834,24.167411589182947,24.790863118140862,25.522125869658375,23.593641986641273C27.066717758071977,22.228617586291225,29.419086407013054,21.1672515388151,29.681359595828646,19.122681048532947C29.951241988066545,17.018792437164674,27.01893985943835,15.643135614249665,26.812805969725943,13.532047597563198C26.56353545597242,10.97918258719285,29.75314748893059,8.288562417309496,28.41010008380432,6.1032754297987655C27.151157722923678,4.054836671228031,23.81055903201004,4.97705657636625,21.416732793392505,4.752038455005422C19.59520014739741,4.580815561970404,17.816787432935975,4.7209056670885685,16,4.936734031885862C14.344193785896522,5.133438357957532,12.826692256970665,5.784660320047934,11.169505728271616,5.9693752887359C8.704238030181601,6.244161402292856,5.522768397052625,4.481805919060815,3.8283384826892295,6.293423841460633C2.2030670848788816,8.03110019388932,4.670442451257328,10.978458890027033,4.287998875850379,13.326812171362747C3.937128692086791,15.481292466886929,1.6516719993093663,17.07818689148733,1.716639247654907,19.260083884083148C1.7818934187530586,21.45161705347527,2.863855812610021,23.772335214419574,4.637402123825471,25.061369434820904C6.43406055067266,26.367201811417416,9.134990818502285,25.136293783562547,11.13386487361738,26.104633708545734C13.139415985497108,27.076208284871775,13.77507545715175,30.43978903581753,16,30.565896919618048" fill="#b97dd9" strokewidth="0"/>
</g>
<g id="SVGRepo_tracerCarrier" stroke-linecap="round" stroke-linejoin="round"/>
<g id="SVGRepo_iconCarrier">
<path id="secondary" d="M19,8a1,1,0,0,1-1-1V6H17a1,1,0,0,1,0-2h1V3a1,1,0,0,1,2,0V4h1a1,1,0,0,1,0,2H20V7A1,1,0,0,1,19,8Z" style="fill: #2ca9bc;"/>
<path id="primary" d="M17.89,12.58C16.47,4.87,7.42,4.26,2.84,5a1,1,0,1,0,.32,2c.12,0,11.34-1.78,12.76,6a3.39,3.39,0,0,1-1,3.38C13.59,17.58,11.1,18,9.19,17.92l-1-6.19a5.66,5.66,0,0,1,3.21,1.07,1,1,0,1,0,1.19-1.6A7.59,7.59,0,0,0,7.82,9.74l-.15-.9a1,1,0,1,0-2,.32l.14.84a7.67,7.67,0,0,0-1.33.48A4.07,4.07,0,0,0,2,14.06c0,2.54,2,4.68,5.16,5.57l.29.06.25,1.47a1,1,0,0,0,1,.84h.17a1,1,0,0,0,.82-1.15l-.15-.92h.19a10.1,10.1,0,0,0,6.59-2.12A5.4,5.4,0,0,0,17.89,12.58ZM4,14.06c0-.94.88-1.52,1.41-1.79A5.22,5.22,0,0,1,6.17,12l.92,5.52C5.15,16.79,4,15.54,4,14.06Z" style="fill: #000000;"/>
</g>
</svg>